<svg version="1.1" viewBox="0 0 702.3 288.3" xmlns="http://www.w3.org/2000/svg">
    <g transform="translate(-32.16 -14.66)">
        <g transform="translate(-10.58 12.34)">
            <g fill="#ffffff" fill-rule="evenodd">
                <path d="m373.6 223.7h-0.0171c-1.603 0-3.018 0.5286-4.348 1.603-0.989 0.7844-1.671 1.842-2.217 3.018h0.0682c0.5457-1.177 1.228-2.234 2.2-3.018 1.33-1.074 2.745-1.586 4.314-1.603z" />
                <path d="m107 18.25c2e-5 0-59.31 258.8-59.31 258.8h417.1c-17-1.484-30.42-7.452-38.42-18.33-1.484-2.012-2.709-4.18-3.783-6.448-0.6821-1.671-1.324-3.357-1.972-5.062-1.705-5.423-2.385-11.44-2.078-17.85 0.8526-17.87 9.238-39.13 23.77-61.39 15.43-23.66 37.8-48.45 65.49-71.46 6.207-5.153 12.63-10.24 19.34-15.19 8.304-6.11 16.67-11.74 25.05-17 30.85-19.42 61.62-33.01 88.88-39.91-26.06 8.501-55.33 22.93-84.25 42.58-1.04 0.7026-2.068 1.422-3.091 2.132-16.05 11.12-30.58 22.93-43.27 34.85-40.82 38.38-62.4 78.16-52.6 101.5 0.6992 1.603 1.533 3.133 2.505 4.583 10.54 15.5 36.66 18.18 69.75 9.858 2.251-0.5628 4.502-1.2 6.821-1.865 10.57-3.052 21.8-7.175 33.36-12.26 2.779-1.228 5.589-2.49 8.42-3.837 0.2899-0.1364 0.5627-0.2728 0.8526-0.4263 36.49-18.13 64.54-38.99 70.61-51.53 1.33-2.727 1.65-5.051 0.746-6.874-4.331-8.782-34.64-2.849-71.35 13.06-2.95 1.279-5.934 2.595-8.952 3.997 2.456-2.28 5.011-4.568 7.62-6.821 4.161-3.584 8.469-7.089 13.06-10.55 7.179-5.436 14.44-10.35 21.58-14.71 33.46-25.24 50.37-49.12 46.84-57.98-0.665-1.669-2.08-2.818-4.263-3.517-6.974-2.218-19.7 0.4293-35.17 6.768-12.76 5.232-27.41 12.99-42.26 22.65l-2.025 1.332c2e-5 0-0.373 0.2131-0.373 0.2131 2e-5 2e-5 -7.141 4.743-7.141 4.743-2e-5 -1e-5 4.103-7.514 4.103-7.514 6.088-11.14 16-22.77 28.35-33.57 9.055-7.897 19.4-15.34 30.53-21.85 4.212-2.466 8.417-4.756 12.63-6.821 4.314-2.108 8.631-3.981 12.84-5.649 12.24-4.839 32.4-10.2 42.58-11l-37.1 2.417h-521.7zm306 0.3731c-1.671 25.5 3.274 62.86 14.49 104.3 1.995 7.38 4.167 14.89 6.554 22.49 1.484 4.691 3.014 9.309 4.583 13.85-0.9208 1.354-1.848 2.699-2.718 4.05-14 21.46-22.18 41.73-24.25 59.36-5.917-19.81-10.37-41.52-12.9-64.53-0.7162-6.594-1.277-13.11-1.652-19.56-2.762-46.8 3.346-89.22 15.88-120zm-279.4 33.2c0.3193-0.0075 0.6341 0 0.9592 0 0-2e-5 63.04 0 63.04 0 5.389-2e-5 9.556 1.01 12.52 3.037 2.95 2.039 4.056 4.677 3.357 7.887 2e-5 2e-5 -7.514 33.94-7.514 33.94 0 3e-5 -22.22 0-22.22 0 2e-5 3e-5 7.3-33.04 7.3-33.04h-55.63c-2e-5 0-20.09 90.8-20.09 90.8 2e-5 0-7.247 32.88-7.247 32.88 0 3e-5 55.58 0 55.58 0 0 3e-5 0.0533-0.2132 0.0533-0.2132 0 2e-5 11.14-50.3 11.14-50.3 0-2e-5 -26.11 0-26.11 0 0-2e-5 2.505-11.35 2.505-11.35-1e-5 -2e-5 48.33 0 48.33 0 0-2e-5 -13.85 62.77-13.85 62.77-0.1876 0.8935-0.5158 1.703-0.9592 2.505-1.142 2.08-3.135 3.862-5.915 5.329-3.854 2.029-8.466 3.037-13.85 3.037 0 2e-5 -62.99 0-62.99 0-5.389 2e-5 -9.556-1.008-12.52-3.037-2.95-2.029-4.073-4.621-3.357-7.833 1e-5 -2e-5 27.76-125.5 27.76-125.5 0.7162-3.209 2.95-5.847 6.821-7.887 0.1364-0.07331 0.2899-0.08995 0.4263-0.1599 3.533-1.77 7.679-2.764 12.47-2.878zm98.8 0c-2e-5 -2e-5 79.35 0 79.35 0 5.32-2e-5 9.502 1.01 12.47 3.037 2.984 2.039 4.127 4.677 3.41 7.887 2e-5 2e-5 -14.81 66.93-14.81 66.93-0.6991 3.189-2.986 5.79-6.874 7.833-3.888 2.05-8.464 3.091-13.8 3.091h-57.66l-11.14 50.25c0 2e-5 -1.812 8.26-1.812 8.26 1e-5 2e-5 -21.74 0-21.74 0 0 2e-5 1.652-7.46 1.652-7.46 0 2e-5 30.96-139.8 30.96-139.8zm109.6 0c-1e-5 -2e-5 21.74 0 21.74 0 2e-5 -2e-5 -24.62 111.2-24.62 111.2 2e-5 2e-5 -5.382 24.3-5.382 24.3 0 3e-5 52.01 0 52.01 0 0.5457 3.989 1.183 7.906 1.865 11.78-2e-5 2e-5 -78.23 0-78.23 0 2e-5 2e-5 6.181-27.92 6.181-27.92 2e-5 0 26.43-119.4 26.43-119.4zm-90.48 11.83c2e-5 0-14.44 65.12-14.44 65.12 0-2e-5 54.19 0 54.19 0-1e-5 -2e-5 14.39-65.12 14.39-65.12zm-45.56 145.7c0.2127-7e-3 0.4252 0 0.6395 0 2.524 2e-5 4.728 0.4434 6.501 1.279 1.893 0.8867 3.246 2.204 3.997 3.943 0.7332 1.688 0.9251 3.604 0.5329 5.702 0 1e-5 -0.1598 0.7993-0.1598 0.7993 1e-5 -3e-5 -6.235 0-6.235 0-2e-5 -3e-5 0.0533-0.746 0.0533-0.746 0.1612-1.465-0.0205-2.618-0.5862-3.41-0.0737-0.0994-0.1805-0.2306-0.2664-0.3197-0.1407-0.1436-0.352-0.3078-0.5329-0.4263-0.8724-0.5495-2.237-0.8526-3.997-0.8526-2.336 2e-5 -4.082 0.4071-5.276 1.226-1.16 0.8015-1.893 1.697-2.132 2.771-0.2388 1.091 0.1535 1.665 0.4263 1.972 8e-3 8e-3 0.0429 0.0438 0.0533 0.0533 0.3455 0.2944 1.545 0.9848 5.276 1.865 3.376 0.8185 5.612 1.554 6.874 2.185 1.91 0.972 3.244 2.232 3.943 3.783 0.6991 1.535 0.8526 3.332 0.4263 5.276-0.4263 1.893-1.392 3.639-2.824 5.276-1.415 1.637-3.216 2.933-5.382 3.837-2.149 0.8867-4.506 1.385-6.927 1.385-3.069-1e-5 -5.533-0.4647-7.46-1.385-2.012-0.9549-3.464-2.462-4.316-4.423-0.8185-1.91-0.9933-4.078-0.5329-6.448 0-3e-5 0.1599-0.746 0.1599-0.746h6.128l-0.0533 0.746c-0.1535 1.415-2e-3 2.558 0.373 3.41 0.3581 0.8185 1.04 1.496 2.132 2.025 1.16 0.5627 2.609 0.8526 4.263 0.8526 1.484-1e-5 2.839-0.2494 4.05-0.6927 1.194-0.4263 2.142-0.989 2.824-1.705 0.665-0.7162 1.055-1.473 1.226-2.291 0.1705-0.7332 0.13-1.354-0.1599-1.865-0.324-0.5456-0.9656-1.03-1.972-1.439 0-1e-5 -5.222-1.545-5.222-1.545-2.916-0.7332-4.879-1.432-6.022-2.132-1.552-0.9208-2.671-2.102-3.251-3.517-0.5798-1.398-0.6416-2.948-0.2664-4.636 0.3922-1.808 1.264-3.528 2.611-5.062 1.364-1.552 3.125-2.769 5.222-3.57 1.854-0.6954 3.806-1.103 5.862-1.172zm55.95 0.1066c0.3372-0.0263 0.6544 0 1.012 0 1e-5 0 3.837 0.4263 3.837 0.4263l1.279 0.1066c2e-5 1e-5 -1.865 4.743-1.865 4.743l-0.373 0.746c0-2e-5 -2.931-0.2664-2.931-0.2664-0.8654 0-1.501 0.1335-1.918 0.4263-0.0277 0.0209-0.081 0.0842-0.1066 0.1066-0.0559 0.049-0.1499 0.1346-0.2132 0.2132-0.2566 0.3365-0.5691 0.9379-0.7993 2.025-2e-5 0-0.1108 0.4604-0.2132 0.8526 1.347 1e-5 4.583 0 4.583 0 0 1e-5 -1.172 5.276-1.172 5.276 0-1e-5 -3.351 0-4.476 0-0.3411 1.535-4.53 20.3-4.53 20.3-2e-5 -2e-5 -6.181 0-6.181 0-2e-5 -2e-5 4.018-18.03 4.53-20.3-1.04-1e-5 -3.57 0-3.57 0 0-1e-5 1.172-5.276 1.172-5.276 1e-5 1e-5 2.545 0 3.517 0 0.1705-0.7332 0.4263-1.652 0.4263-1.652 0.3752-1.705 0.7674-2.931 1.279-3.783 0.6992-1.177 1.686-2.161 2.931-2.878 1.025-0.5958 2.322-0.9519 3.783-1.066zm14.76 0.2664c-2e-5 -1e-5 -1.616 7.271-2.025 9.112 1.194 1e-5 3.997 0 3.997 0 0 1e-5 -1.172 5.276-1.172 5.276-2e-5 -1e-5 -2.939 0-3.997 0-0.324 1.466-2.878 12.84-2.878 12.84 2e-5 -2e-5 -0.2132 1.366-0.2132 1.759 2.8e-4 0.0131-1e-3 0.0437 0 0.0533 8.4e-4 4e-3 -1e-3 0.05 0 0.0533 2e-3 3e-3 0.0512-2e-3 0.0533 0 0-2e-5 0.6395 0.0533 0.6395 0.0533l2.931-0.2132-0.3197 4.743c2e-5 0 0.0533 0.8526 0.0533 0.8526-2e-5 -2e-5 -4.21 0.4796-4.21 0.4796-1.671-2e-5 -2.897-0.2728-3.783-0.8526-0.9378-0.6139-1.484-1.428-1.705-2.451-0.0341-0.1876-0.1066-0.4604-0.1066-0.8526 0-0.7674 0.145-2.065 0.6395-4.316 2e-5 2e-5 2.24-10.04 2.718-12.15-0.8014-1e-5 -2.931 0-2.931 0 2e-5 -1e-5 1.172-5.276 1.172-5.276-2e-5 1e-5 2.078 0 2.931 0 0.2728-1.228 1.226-5.435 1.226-5.435 0 2e-5 4.956-2.611 4.956-2.611-1e-5 2e-5 2.025-1.066 2.025-1.066zm-196.4 0.2132h23.98l-1.332 5.968c0 2e-5 -16 0-17.53 0-0.2728 1.211-1.366 6.113-1.759 7.887h15.19l-1.332 5.968h-15.19c-0.324 1.484-3.251 14.65-3.251 14.65 2e-5 -2e-5 -6.448 0-6.448 0 1e-5 -2e-5 7.673-34.48 7.673-34.48zm32.13 8.42c0.2407-0.0296 0.5036 0 0.746 0 1.535 0 2.952 0.4668 4.316 1.439 0 2e-5 0.8526 0.5862 0.8526 0.5862l-3.304 5.435c0-2e-5 -0.9059-0.6395-0.9059-0.6395-0.665-0.4263-1.381-0.6395-2.132-0.6395-0.648 2e-5 -1.251 0.2302-1.865 0.6395-0.648 0.4263-1.189 0.9912-1.599 1.759-0.7162 1.313-1.241 2.784-1.599 4.37 0 1e-5 -2.878 13.11-2.878 13.11 0-2e-5 -6.181 0-6.181 0 0-2e-5 5.702-25.58 5.702-25.58 2e-5 1e-5 5.755 0 5.755 0 0 1e-5 -0.1982 0.7759-0.2664 1.066 0.2728-0.2046 0.5606-0.486 0.7993-0.6395 0.826-0.4929 1.698-0.8004 2.558-0.9059zm18.33 0c0.3722-0.0282 0.7386 0 1.119 0 3.479 0 6.111 1.219 7.833 3.624 1.074 1.552 1.652 3.47 1.652 5.755 0 1.262-0.1556 2.62-0.4796 4.103l-0.4796 1.865c0-2e-5 -15.63 0-17.37 0-0.0341 0.3581-0.0533 0.7418-0.0533 1.066 0 1.33 0.2728 2.377 0.8526 3.144 0.2755 0.3751 0.5949 0.713 0.9592 0.9592 0.6868 0.4479 1.573 0.6928 2.611 0.6928 1.262-2e-5 2.37-0.3474 3.41-1.012 0.989-0.6309 1.935-1.639 2.771-3.037 0-3e-5 6.608 0 6.608 0 0-3e-5 -0.5862 1.279-0.5862 1.279-1.262 2.558-3.023 4.553-5.222 5.968-2.2 1.415-4.828 2.185-7.727 2.185-3.769-1e-5 -6.574-1.219-8.313-3.624-1.722-2.353-2.093-5.606-1.172-9.698 0.9208-4.161 2.758-7.486 5.435-9.805 2.4-2.081 5.122-3.235 8.153-3.464zm27.76 0c0.3722-0.0282 0.7386 0 1.119 0 3.479 0 6.111 1.219 7.833 3.624 1.074 1.552 1.652 3.47 1.652 5.755 0 1.245-0.1556 2.583-0.4796 4.05 0 2e-5 -0.4796 1.918-0.4796 1.918 0-2e-5 -15.63 0-17.37 0-0.0171 0.2387-0.0362 0.454-0.0533 0.6928-0.0128 0.0895 6e-3 0.2254 0 0.3197-5e-4 0.0154 0 0.0384 0 0.0533 0 0.2558 0.0362 0.5073 0.0533 0.746 0.0852 0.972 0.3389 1.784 0.7993 2.398 0.0877 0.1194 0.1701 0.2667 0.2664 0.373 0.781 0.8355 1.886 1.279 3.304 1.279 1.262-2e-5 2.387-0.3474 3.41-1.012 0.989-0.6309 1.935-1.639 2.771-3.037 0-3e-5 6.661 0 6.661 0-1e-5 -3e-5 -0.6395 1.279-0.6395 1.279-1.262 2.558-3.022 4.553-5.222 5.968-2.2 1.415-4.828 2.185-7.727 2.185-3.769-1e-5 -6.574-1.219-8.313-3.624-1.125-1.535-1.652-3.489-1.652-5.808 0-0.3581 0.0192-0.7439 0.0533-1.119 0.0682-0.8867 0.2046-1.782 0.4263-2.771 0.9208-4.144 2.705-7.486 5.382-9.805 2.4-2.081 5.176-3.235 8.206-3.464zm75.62 0c0.3808-0.0293 0.7311 0 1.119 0 3.547 0 6.273 1.2 8.047 3.57 1.756 2.37 2.183 5.568 1.279 9.592-0.6991 3.138-1.709 5.672-3.091 7.514-1.381 1.842-3.142 3.346-5.222 4.37-2.063 1.023-4.248 1.545-6.448 1.545-3.615-1e-5 -6.307-1.236-8.047-3.624-1.125-1.518-1.705-3.472-1.705-5.808 2e-5 -1.262 0.1386-2.603 0.4796-4.103 1.023-4.57 3.112-8.051 6.181-10.28 2.253-1.626 4.741-2.566 7.407-2.771zm93.63 0c0.4496-0.0277 0.8659 0 1.332 0 2.149 0 3.837 0.2174 5.116 0.746 1.364 0.5457 2.332 1.317 2.878 2.238 0.5286 0.8696 0.7993 1.938 0.7993 3.251 1e-5 2e-5 -0.6395 3.89-0.6395 3.89 3e-5 0-1.172 5.276-1.172 5.276-1.006 4.502-1.228 6.19-1.279 6.821-0.0512 0.8526 0.0277 1.684 0.2664 2.451 2e-5 -2e-5 0.4263 1.385 0.4263 1.385 2e-5 -2e-5 -6.288 0-6.288 0-2e-5 -2e-5 -0.2664-0.7993-0.2664-0.7993-0.1023-0.3751-0.0725-0.8526-0.1066-1.279-1.194 0.7332-2.389 1.383-3.464 1.759-1.586 0.5457-3.231 0.8526-4.903 0.8526-2.899-1e-5 -5.045-0.7545-6.341-2.238-0.989-1.091-1.439-2.426-1.439-3.943-2e-5 -0.5798 0.0767-1.181 0.2131-1.812 0.2899-1.296 0.8164-2.496 1.652-3.57 0.8185-1.057 1.786-1.927 2.878-2.558 1.057-0.6309 2.236-1.079 3.464-1.386-2e-5 0 3.783-0.6395 3.783-0.6395 2.916-0.3411 5.092-0.7652 6.661-1.226 0.0341-0.1705 0.1066-0.373 0.1066-0.373 0.2473-1.097 0.2163-1.922-0.0533-2.345-0.0198-0.0273-0.0842-0.0831-0.1066-0.1066-0.0576-0.0614-0.146-0.1578-0.2132-0.2132-0.6414-0.5075-1.735-0.746-3.197-0.746-1.654 0-2.878 0.2707-3.73 0.7993-0.8356 0.5286-1.609 1.496-2.291 2.878-1e-5 -1e-5 -6.448 0-6.448 0 2e-5 -1e-5 0.5862-1.279 0.5862-1.279 0.7673-1.773 1.682-3.244 2.824-4.37 1.142-1.125 2.686-1.997 4.476-2.611 1.372-0.453 2.87-0.7535 4.476-0.8526zm27.02 0c0.2405-0.0296 0.5036 0 0.746 0 1.552 0 3.005 0.4668 4.37 1.439 2e-5 2e-5 0.7993 0.5862 0.7993 0.5862 1e-5 0-3.304 5.435-3.304 5.435 1e-5 -2e-5 -0.9059-0.6395-0.9059-0.6395-0.665-0.4263-1.345-0.6395-2.078-0.6395-0.648 2e-5 -1.287 0.2302-1.918 0.6395-0.648 0.4263-1.119 0.9912-1.545 1.759-0.6992 1.313-1.241 2.784-1.599 4.37-2e-5 1e-5 -2.931 13.11-2.931 13.11 2e-5 -2e-5 -6.181 0-6.181 0 0-2e-5 5.702-25.58 5.702-25.58-1e-5 1e-5 5.755 0 5.755 0 0 1e-5 -0.1449 0.7759-0.2131 1.066 0.2728-0.2046 0.5435-0.486 0.7993-0.6395 0.8126-0.4929 1.646-0.8004 2.505-0.9059zm18.28 0c0.3718-0.0282 0.7386 0 1.119 0 3.479 0 6.128 1.219 7.833 3.624 1.091 1.552 1.652 3.47 1.652 5.755-2e-5 1.262-0.2089 2.62-0.5329 4.103l-0.4263 1.865c-1e-5 -2e-5 -15.65 0-17.37 0-0.0341 0.3581-0.1066 0.7418-0.1066 1.066 0 1.33 0.2899 2.377 0.8526 3.144 0.0877 0.1194 0.223 0.2667 0.3197 0.373 0.056 0.0597 0.1541 0.1577 0.2132 0.2131 0.7624 0.693 1.8 1.066 3.091 1.066 1.262-2e-5 2.37-0.3474 3.41-1.012 0.989-0.6309 1.918-1.639 2.771-3.037-2e-5 -3e-5 6.661 0 6.661 0 0-3e-5 -0.6395 1.279-0.6395 1.279-1.262 2.558-3.04 4.553-5.222 5.968-2.217 1.415-4.811 2.185-7.727 2.185-3.769-1e-5 -6.52-1.219-8.26-3.624-1.722-2.353-2.129-5.606-1.226-9.698 0.9208-4.161 2.705-7.486 5.382-9.805 2.415-2.081 5.179-3.235 8.206-3.464zm-93.31 0.4796c2e-5 1e-5 6.341 0 6.341 0 2e-5 1e-5 0.7823 15.18 0.7993 15.4 0.2558-0.5436 0.4542-1.001 0.4796-1.066 1e-5 1e-5 6.981-14.33 6.981-14.33 2e-5 1e-5 5.808 0 5.808 0-1e-5 1e-5 0.5329 15 0.5329 15.08 0.1706-0.3069 7.94-15.08 7.94-15.08-2e-5 1e-5 6.288 0 6.288 0-1e-5 1e-5 -13.85 25.58-13.85 25.58 2e-5 -2e-5 -5.702 0-5.702 0 0-2e-5 -0.5521-13.87-0.5862-14.65-2.353 4.826-7.141 14.65-7.141 14.65 0-2e-5 -5.862 0-5.862 0 0-2e-5 -2.025-25.58-2.025-25.58zm-148.9 4.849c-1.469 0.062-2.803 0.5915-4.05 1.599-0.989 0.7844-1.656 1.861-2.185 3.037 0 2e-5 10.5 0 10.5 0 0.0171-0.1876 0.0533-0.4156 0.0533-0.5862-2e-5 -0.972-0.1727-1.727-0.4796-2.238-0.7503-1.228-1.863-1.812-3.517-1.812-0.0991 0-0.2218-4e-3 -0.3197 0zm27.76 0c-1.469 0.062-2.803 0.5915-4.05 1.599-0.989 0.7844-1.639 1.861-2.185 3.037 0 2e-5 10.5 0 10.5 0 0.017-0.1876 0.0533-0.4156 0.0533-0.5862-1e-5 -0.972-0.1556-1.727-0.4796-2.238-0.1489-0.2494-0.3504-0.4974-0.5329-0.6927-0.712-0.7357-1.692-1.119-2.984-1.119-0.0991 0-0.2218-4e-3 -0.3197 0zm214.8 0c-1.511 0.0465-2.921 0.5579-4.21 1.599-0.972 0.7844-1.639 1.861-2.185 3.037 2e-5 2e-5 10.44 0 10.44 0 0.017-0.1876 0.0533-0.4156 0.0533-0.5862-1e-5 -0.972-0.1556-1.727-0.4796-2.238-0.7332-1.211-1.863-1.795-3.517-1.812-0.049 5.3e-4 -0.0578-1e-3 -0.1066 0zm-139.6 0.1066c-1.41 0.1674-2.72 0.8105-3.943 1.918-1.466 1.33-2.53 3.419-3.144 6.181-0.2558 1.16-0.373 2.151-0.373 3.037 2e-5 1.211 0.2323 2.161 0.6928 2.878 0.1226 0.1838 0.2852 0.3781 0.4263 0.5329 0.758 0.8049 1.817 1.226 3.144 1.226 1.722-2e-5 3.24-0.6416 4.689-1.972 1.467-1.347 2.513-3.457 3.144-6.288 0.5798-2.592 0.4988-4.527-0.3197-5.755-0.7844-1.194-1.931-1.759-3.517-1.759-0.2691 0-0.5383-0.031-0.7993 0zm96.29 9.325c-1.449 0.3922-3.074 0.7226-5.222 1.012-1.603 0.2387-2.745 0.4902-3.41 0.746-0.5798 0.2387-1.047 0.5691-1.439 1.012-0.3752 0.4263-0.6267 0.8739-0.746 1.385-0.0341 0.2046-0.0533 0.4156-0.0533 0.5862 0 0.0138-3.1e-4 0.0396 0 0.0533 2e-3 0.0406-4e-3 0.1207 0 0.1598 0.0107 0.0774 0.0322 0.1944 0.0533 0.2664 8e-3 0.0237 0.0445 0.0834 0.0533 0.1066 0.0187 0.0458 0.0301 0.1161 0.0533 0.1599 0.0243 0.0433 0.0779 0.1185 0.1066 0.1599 0.0446 0.0614 0.1055 0.1556 0.1599 0.2132 0.4263 0.4775 1.277 0.6928 2.505 0.6928 1.347 1e-5 2.643-0.2558 3.837-0.8526 1.177-0.5798 2.125-1.445 2.824-2.451 0.5116-0.7162 0.9208-1.818 1.279-3.251z" />
                <path d="m373.6 223.7h-0.0512c1.654 0.017 2.745 0.5798 3.479 1.79 0.324 0.5116 0.4945 1.279 0.4945 2.251 0 0.1705-0.0341 0.3922-0.0512 0.5798h0.0682c0-0.1876 0.0341-0.4092 0.0341-0.5798 0-0.972-0.1535-1.739-0.4775-2.251-0.7332-1.228-1.842-1.79-3.496-1.79z" />
            </g>
            <path d="m417.1 250.2c0.6922 1.78 1.384 3.556 2.106 5.294 1.11 2.361 2.394 4.621 3.937 6.73 8.336 11.33 22.3 17.53 40.02 19.08h19.07c6.028-0.4701 12.34-1.347 18.89-2.628 11.29-2.208 23.26-5.6 35.69-10.13 9.417-3.434 19.09-7.496 28.91-12.22 21.39-10.25 43.48-23.48 65.16-39.43 7.139-5.251 13.99-10.64 20.56-16.12 6.028-5.016 11.81-10.11 17.33-15.26 15.42-14.86 27.05-29.95 33.65-43.19 6.865-13.8 8.235-25.59 2.61-33.02-3.447-4.561-9.215-7.006-16.64-7.581 33.46-25.1 52.96-55.56 45.96-74.76-2.221-6.128-7.11-10.7-14.12-13.23-3.115-1.12-6.619-1.83-10.44-2.153h-10.3c-14.38 1.037-35.29 6.185-53.02 14.88" fill-opacity="0" stroke="#ffffff" stroke-width="8.526" />
        </g>
    </g>
</svg>
